<?xml version="1.0" standalone="no"?>
<!DOCTYPE svg PUBLIC "-//W3C//DTD SVG 20010904//EN"
 "http://www.w3.org/TR/2001/REC-SVG-20010904/DTD/svg10.dtd">
<svg version="1.0" xmlns="http://www.w3.org/2000/svg"
 width="3226.000000pt" height="1815.000000pt" viewBox="0 0 3226.000000 1815.000000"
 preserveAspectRatio="xMidYMid meet">

<g transform="translate(0.000000,1815.000000) scale(0.100000,-0.100000)"
fill="#C0C0C0" stroke="none">
<path d="M2270 14873 l-22 -28 3 -617 4 -618 -92 0 -93 0 0 587 0 587 -27 28
c-49 51 -110 29 -138 -51 -13 -38 -15 -143 -15 -765 0 -479 4 -742 11 -781 19
-102 23 -109 278 -375 l110 -115 -5 -1020 c-3 -561 -13 -1396 -24 -1855 -38
-1618 -42 -1921 -25 -1978 32 -108 171 -194 314 -195 148 -2 291 86 325 200
16 53 17 77 7 263 -6 113 -13 306 -16 430 -4 124 -17 468 -31 765 -13 297 -28
695 -34 885 -33 1148 -41 1430 -50 1933 l-10 559 62 66 c35 36 88 92 118 125
30 32 75 80 100 106 25 26 59 67 75 91 l30 43 0 816 0 816 -29 38 c-28 36 -32
38 -79 35 -86 -5 -83 21 -77 -646 3 -314 4 -577 2 -582 -2 -6 -42 -10 -91 -10
l-88 0 -6 302 c-4 166 -7 446 -7 623 l0 322 -23 21 c-31 29 -87 29 -113 1 -18
-20 -19 -43 -15 -645 l4 -624 -90 0 -90 0 -6 257 c-4 141 -7 416 -7 612 0 337
-1 358 -20 389 -17 27 -25 32 -59 32 -31 0 -44 -6 -61 -27z"/>
<path d="M19735 14873 c-33 -14 -73 -35 -90 -47 -16 -11 -37 -25 -46 -31 -54
-33 -82 -57 -156 -132 -46 -45 -83 -87 -83 -92 0 -5 -7 -15 -16 -22 -25 -21
-76 -105 -122 -204 -24 -49 -47 -97 -51 -105 -14 -27 -68 -223 -95 -345 -78
-356 -93 -657 -43 -875 53 -232 128 -373 288 -540 45 -46 53 -53 150 -125 66
-49 81 -58 142 -90 l47 -25 0 -78 c0 -75 -24 -1698 -34 -2302 -3 -168 -14
-458 -26 -645 -11 -187 -24 -470 -30 -630 -6 -159 -15 -367 -20 -461 -8 -144
-7 -179 5 -222 28 -94 102 -160 229 -202 179 -59 383 1 485 145 l36 49 -3 146
c-1 80 -11 267 -22 415 -11 149 -24 367 -30 486 -5 118 -16 298 -24 400 -8
101 -17 240 -21 309 -6 138 -50 1761 -61 2265 l-7 320 44 22 c62 32 101 55
131 78 14 11 39 29 54 39 53 36 209 200 249 261 129 196 187 403 187 670 1
243 -68 625 -153 850 -10 28 -19 54 -19 59 0 10 -88 187 -116 232 -118 195
-299 363 -462 429 -52 21 -78 25 -159 25 -82 -1 -108 -5 -158 -27z"/>
<path d="M11070 13770 c-278 -35 -514 -118 -716 -255 -92 -62 -260 -233 -309
-316 -11 -18 -29 -47 -39 -64 -35 -56 -93 -180 -101 -215 -4 -19 -16 -54 -26
-78 -11 -24 -31 -110 -46 -191 -22 -123 -26 -175 -27 -336 0 -313 50 -534 188
-825 120 -255 381 -572 689 -838 54 -46 108 -94 120 -106 12 -12 72 -62 132
-111 61 -49 115 -94 122 -100 6 -5 28 -23 48 -40 21 -16 45 -37 54 -46 9 -9
50 -45 91 -80 169 -145 391 -383 455 -489 56 -93 71 -121 102 -193 43 -101 74
-255 75 -366 3 -343 -217 -551 -582 -551 -163 0 -277 52 -386 175 -116 132
-203 369 -223 608 -4 53 -11 100 -14 103 -6 6 -194 -17 -377 -46 -63 -11 -142
-22 -175 -25 -51 -5 -336 -48 -402 -61 -20 -4 -22 -8 -17 -57 10 -96 53 -354
64 -383 6 -16 18 -54 25 -84 28 -110 119 -326 151 -358 8 -7 14 -17 14 -22 0
-25 126 -203 204 -289 28 -30 148 -138 204 -183 35 -28 154 -98 229 -133 91
-44 232 -88 353 -112 195 -37 619 -20 805 34 28 8 81 23 120 34 38 11 74 24
80 28 5 5 21 12 35 16 39 11 159 72 225 115 33 22 66 42 73 46 44 22 292 268
292 289 0 7 7 18 16 26 8 7 28 35 42 63 102 190 138 281 178 446 28 112 28
122 28 395 l0 280 -32 124 c-55 217 -134 402 -242 566 -22 33 -43 67 -46 75
-4 8 -10 17 -13 20 -4 3 -26 32 -50 65 -118 161 -249 298 -564 590 -20 18
-151 130 -291 249 -53 45 -101 86 -131 113 -10 10 -58 51 -105 91 -106 92
-244 231 -336 342 -73 87 -180 255 -191 300 -3 14 -9 30 -13 35 -19 25 -41
129 -46 220 -21 344 111 566 367 620 165 35 344 1 442 -84 40 -35 97 -97 97
-105 0 -6 9 -19 20 -31 33 -35 86 -182 105 -290 10 -55 19 -106 21 -114 3 -10
21 -12 82 -7 85 7 430 45 705 78 l179 22 -7 80 c-4 45 -16 115 -27 156 -11 41
-26 100 -33 130 -18 74 -72 222 -115 310 -32 68 -137 234 -172 274 -93 104
-181 186 -283 264 -17 13 -108 64 -170 95 -227 113 -561 152 -925 107z"/>
<path d="M14420 10745 l0 -2975 510 0 510 0 0 1224 0 1225 423 3 c399 4 430 6
579 31 391 65 660 188 871 398 53 53 97 101 97 106 0 5 11 20 25 33 14 13 25
28 25 32 0 5 12 28 28 51 115 177 196 452 233 796 7 65 9 207 6 370 -4 242 -8
282 -36 436 -41 223 -74 333 -153 500 -66 140 -237 348 -347 421 -24 16 -62
42 -85 57 -189 127 -554 235 -876 258 -69 4 -504 8 -967 9 l-843 0 0 -2975z
m1810 2101 c127 -34 201 -72 273 -140 114 -108 170 -247 192 -481 19 -191 19
-312 0 -508 -31 -321 -125 -484 -340 -585 -27 -13 -68 -27 -90 -32 -22 -4 -74
-16 -115 -25 -57 -12 -153 -18 -392 -22 l-318 -6 0 917 0 918 343 -4 c338 -4
343 -4 447 -32z"/>
<path d="M22350 10746 l0 -2976 510 0 510 0 2 1223 3 1222 245 6 c135 4 252 9
261 13 14 6 21 -5 37 -56 32 -103 68 -227 97 -328 15 -52 35 -122 45 -155 28
-93 131 -442 215 -730 12 -44 37 -125 53 -180 42 -137 76 -253 107 -360 50
-174 112 -383 159 -535 15 -47 26 -93 26 -102 0 -17 31 -18 520 -18 380 0 520
3 520 11 0 13 -39 137 -75 239 -12 36 -37 112 -55 170 -17 58 -40 130 -50 160
-10 30 -33 102 -51 160 -18 58 -45 141 -60 185 -25 74 -74 226 -151 470 -17
55 -44 136 -59 180 -15 44 -39 121 -54 170 -16 50 -36 113 -46 140 -10 28 -23
68 -28 90 -10 41 -36 122 -76 235 -12 36 -37 112 -55 170 -17 58 -41 130 -52
161 -11 31 -23 72 -28 90 -4 19 -11 42 -15 51 -5 13 2 21 27 33 34 16 113 64
164 100 62 43 194 184 240 255 47 72 55 86 87 147 88 170 158 434 177 666 12
144 12 510 0 652 -16 198 -81 474 -137 586 -13 26 -23 52 -23 58 0 6 -11 29
-25 51 -14 22 -25 43 -25 47 0 3 -25 43 -55 88 -64 96 -270 305 -300 305 -3 0
-21 11 -39 25 -107 82 -306 156 -566 213 l-165 35 -907 4 -908 5 0 -2976z
m1705 2105 c111 -35 176 -71 238 -132 97 -94 148 -212 176 -413 27 -185 33
-320 22 -481 -25 -351 -83 -509 -238 -646 -37 -33 -121 -69 -218 -95 -93 -24
-119 -26 -382 -31 l-283 -6 0 918 0 917 308 -4 c285 -4 312 -6 377 -27z"/>
<path d="M27040 10745 l0 -2975 1425 0 1425 0 0 445 0 445 -915 0 -915 0 0
875 0 875 658 2 657 3 3 443 2 442 -660 0 -660 0 0 765 0 765 855 0 855 0 0
445 0 445 -1365 0 -1365 0 0 -2975z"/>
<path d="M5010 10735 l0 -2975 460 0 460 0 0 1856 c0 1910 0 1927 37 1808 6
-21 39 -118 73 -214 34 -96 68 -193 74 -215 7 -22 18 -53 25 -70 14 -32 64
-173 85 -240 7 -22 18 -53 25 -70 8 -16 19 -50 27 -75 7 -25 29 -90 49 -145
63 -176 95 -267 135 -385 22 -63 56 -160 76 -215 50 -140 93 -263 109 -310 7
-22 32 -92 55 -155 23 -63 48 -133 54 -155 7 -22 18 -53 25 -70 8 -16 19 -50
27 -75 7 -25 29 -90 49 -145 20 -55 44 -125 55 -155 10 -30 35 -100 55 -155
20 -55 43 -121 50 -147 8 -26 20 -62 29 -80 8 -18 19 -49 25 -68 5 -19 28 -87
51 -150 23 -63 48 -133 55 -155 8 -22 27 -78 44 -125 l29 -85 446 -3 446 -2 0
2975 0 2975 -460 0 -460 0 0 -1701 c0 -1356 -3 -1700 -12 -1697 -7 3 -25 38
-40 79 -15 41 -41 112 -58 159 -17 47 -40 110 -51 140 -51 142 -68 189 -84
235 -9 28 -24 65 -32 84 -9 19 -26 64 -38 100 -31 88 -68 190 -100 276 -15 39
-37 99 -50 135 -12 36 -39 110 -60 165 -20 55 -45 123 -55 150 -51 141 -72
198 -105 285 -20 52 -43 113 -50 135 -8 22 -28 78 -45 125 -17 47 -42 114 -55
150 -13 36 -37 101 -53 145 -16 44 -38 103 -47 130 -10 28 -24 66 -32 85 -8
19 -23 60 -33 90 -10 30 -32 92 -49 138 -79 212 -93 250 -106 287 -8 22 -28
78 -45 125 -18 47 -39 106 -48 133 l-16 47 -473 0 -473 0 0 -2975z"/>
<path d="M30120 8063 c-45 -23 -83 -95 -74 -138 12 -58 48 -101 99 -115 88
-25 170 29 182 119 14 105 -109 185 -207 134z m133 -23 c98 -58 48 -220 -68
-220 -36 0 -50 6 -79 34 -31 28 -36 40 -36 77 0 64 7 81 43 106 41 28 96 29
140 3z"/>
<path d="M30130 7940 c0 -47 4 -80 10 -80 6 0 10 13 10 29 0 17 5 33 12 37 10
7 19 -2 52 -51 21 -30 30 -11 13 24 -12 25 -13 31 -2 31 18 0 28 46 15 70 -8
16 -21 20 -60 20 l-50 0 0 -80z m96 45 c9 -23 -16 -46 -45 -43 -20 2 -27 9
-29 31 -3 25 -1 27 33 27 23 0 38 -6 41 -15z"/>
<path d="M630 6485 c-8 -2 -46 -8 -85 -15 -66 -11 -105 -29 -221 -104 -48 -31
-112 -119 -152 -208 l-37 -83 0 -1655 c0 -1583 1 -1657 18 -1700 10 -25 24
-58 30 -75 43 -111 168 -219 312 -271 l80 -29 15555 0 15555 0 83 32 c45 18
97 43 115 55 36 26 137 124 137 134 0 3 9 18 19 33 11 15 32 59 48 97 l28 69
3 1630 3 1630 -27 85 c-37 114 -75 172 -170 258 -36 33 -136 85 -193 101 -51
14 -1518 16 -15571 17 -8533 1 -15522 0 -15530 -1z m2812 -792 c116 -44 220
-180 291 -378 39 -109 67 -222 77 -315 6 -47 14 -123 20 -170 5 -47 10 -129
10 -182 l0 -98 -69 0 -68 0 -6 148 c-9 250 -65 514 -139 658 -63 120 -163 207
-210 182 -25 -13 -23 -31 16 -103 51 -97 62 -152 41 -219 -11 -34 -30 -67 -52
-88 -31 -30 -39 -33 -97 -33 -80 0 -113 24 -181 134 -6 9 -26 40 -44 69 -36
57 -60 76 -87 65 -19 -7 -73 -63 -74 -76 0 -4 -11 -25 -24 -46 -57 -90 -121
-370 -142 -623 l-6 -68 -74 0 -74 0 0 29 c0 61 51 380 76 471 32 118 78 241
110 291 13 21 24 42 24 47 0 5 28 37 62 71 122 122 212 106 322 -58 20 -29 36
-55 36 -57 0 -14 64 -94 76 -94 24 0 16 40 -28 129 -51 107 -60 145 -47 196
30 111 145 164 261 118z m9323 -47 c268 -77 481 -220 646 -431 58 -73 119
-169 119 -185 0 -5 9 -24 20 -43 64 -108 110 -322 110 -510 0 -208 -39 -378
-124 -541 -67 -127 -57 -113 -144 -221 -182 -226 -470 -392 -759 -437 -38 -6
-140 -8 -233 -5 -153 4 -173 7 -280 40 -202 62 -311 119 -455 241 -101 85
-245 250 -245 282 0 6 -6 17 -14 23 -14 12 -86 153 -86 169 0 5 -11 35 -24 68
-62 153 -79 428 -38 624 44 214 141 403 291 571 61 68 191 179 209 179 5 0 15
7 22 15 34 41 229 127 380 167 102 27 111 28 310 24 185 -3 214 -6 295 -30z
m10655 6 c41 -11 89 -22 107 -25 51 -10 238 -95 288 -132 17 -12 35 -24 41
-26 44 -15 244 -210 312 -304 85 -117 166 -314 193 -470 53 -310 -8 -624 -170
-869 -14 -21 -30 -46 -36 -56 -24 -39 -128 -149 -190 -200 -37 -30 -73 -60
-79 -65 -6 -6 -33 -24 -61 -41 -295 -183 -635 -234 -964 -144 -188 51 -344
135 -481 257 -298 267 -435 616 -401 1017 31 360 235 692 551 897 136 88 326
157 500 179 99 13 304 4 390 -18z m6878 -142 c59 -31 81 -55 108 -115 41 -89
28 -150 -61 -295 -19 -30 -46 -75 -60 -100 -14 -25 -38 -67 -54 -95 -16 -27
-38 -66 -49 -85 -12 -19 -33 -55 -47 -80 -30 -53 -45 -79 -107 -185 -26 -44
-51 -99 -56 -122 -10 -46 2 -125 31 -198 9 -22 21 -60 27 -85 7 -25 18 -58 25
-75 7 -16 18 -48 24 -70 5 -22 31 -100 56 -174 46 -136 55 -206 35 -253 -22
-50 -47 -81 -88 -111 -35 -25 -55 -32 -107 -35 -66 -4 -84 0 -345 79 -52 15
-138 40 -190 55 -235 65 -280 78 -355 100 -44 13 -123 35 -175 49 -52 15 -138
40 -190 55 -52 16 -138 41 -190 55 -52 15 -132 38 -176 51 -101 30 -97 30
-203 -1 -47 -14 -126 -37 -176 -52 -49 -14 -132 -38 -184 -54 -51 -16 -98 -29
-105 -29 -6 0 -47 -11 -91 -24 -44 -13 -123 -36 -175 -51 -52 -14 -131 -37
-175 -50 -44 -13 -123 -35 -175 -49 -52 -15 -131 -38 -175 -51 -222 -69 -299
-79 -363 -46 -45 23 -63 42 -92 100 -39 77 -21 154 70 300 22 34 40 65 40 67
0 3 12 23 27 47 15 23 33 53 40 67 7 14 26 48 42 75 17 28 41 70 56 95 14 25
37 65 52 90 84 146 84 147 0 395 -79 231 -117 355 -123 399 -14 95 49 193 139
217 67 18 120 7 417 -82 52 -15 138 -40 190 -55 52 -14 130 -37 172 -50 43
-13 83 -24 90 -24 7 0 49 -11 93 -25 44 -13 123 -36 175 -51 52 -14 130 -37
173 -50 l78 -24 87 25 c48 14 116 34 152 45 36 11 115 33 175 50 181 51 286
80 370 105 44 12 130 37 190 54 61 18 146 42 190 55 75 23 136 40 358 101 132
37 259 74 362 106 110 34 190 37 243 9z m-21900 -265 l53 -7 -5 -51 c-3 -29
-8 -83 -11 -122 -3 -38 -17 -162 -30 -275 -29 -245 -72 -637 -80 -735 -8 -90
-34 -313 -41 -344 -5 -23 -7 -23 -87 -16 -142 11 -133 5 -130 83 1 37 7 362
13 722 10 541 15 764 19 765 8 2 261 -16 299 -20z m-865 -20 c187 -48 279
-116 345 -254 33 -68 36 -81 36 -166 0 -84 -3 -96 -31 -147 -37 -65 -76 -105
-143 -149 -28 -18 -50 -35 -50 -38 0 -3 21 -14 48 -25 78 -31 149 -84 184
-139 32 -50 33 -54 33 -162 0 -101 -2 -114 -28 -165 -82 -159 -304 -265 -572
-272 -88 -3 -90 -3 -93 21 -2 13 -1 43 2 66 7 41 7 42 49 43 150 6 256 69 291
175 32 97 11 173 -63 225 -45 30 -141 62 -191 62 -42 0 -48 12 -55 100 l-7 85
88 28 c99 31 141 62 174 128 77 150 -45 269 -275 269 l-52 0 -6 63 c-14 141
-19 257 -13 273 6 15 19 16 119 11 70 -4 149 -16 210 -32z m-379 -97 c5 -56
13 -267 31 -838 3 -96 10 -260 15 -363 6 -104 7 -193 4 -198 -3 -5 -41 -9 -84
-9 l-79 0 -10 38 c-6 20 -13 57 -17 82 -3 25 -14 79 -25 120 -10 41 -22 102
-28 135 -9 56 -31 158 -81 380 -11 50 -24 115 -29 145 -5 30 -26 132 -46 225
-53 246 -57 267 -52 272 3 2 54 13 113 23 91 16 252 44 275 49 4 0 9 -27 13
-61z m1461 42 c65 -12 136 -30 158 -40 23 -11 46 -20 52 -20 17 0 129 -84 154
-116 11 -15 36 -57 54 -93 30 -63 32 -71 32 -181 0 -113 -1 -116 -38 -190 -60
-121 -152 -207 -292 -276 -33 -16 -61 -29 -63 -30 -2 -1 27 -80 78 -209 17
-44 36 -93 42 -110 5 -16 21 -54 34 -83 31 -69 31 -82 -3 -82 -16 -1 -54 -7
-85 -14 l-57 -14 -48 76 c-26 42 -72 112 -100 155 -29 44 -53 83 -53 87 0 4
-7 13 -15 20 -21 17 -79 122 -78 140 1 8 7 48 13 87 l12 73 56 17 c32 9 74 28
94 40 21 13 41 23 46 23 5 0 24 18 43 41 18 22 35 42 36 43 2 1 7 25 12 52 13
66 -2 130 -41 173 -29 33 -120 84 -174 97 -26 7 -26 8 -20 68 4 34 9 106 12
161 6 98 9 125 17 125 3 0 57 -9 122 -20z m8355 -192 c18 -13 48 -45 68 -73
20 -27 40 -53 45 -56 5 -3 16 -17 25 -31 18 -26 55 -80 94 -134 13 -18 40 -57
61 -88 22 -31 43 -56 48 -56 5 0 9 77 9 173 l0 173 30 48 c72 113 230 100 288
-24 14 -30 17 -88 20 -417 2 -259 0 -395 -8 -423 -6 -23 -26 -58 -44 -78 -30
-32 -39 -36 -95 -40 -93 -7 -124 13 -226 142 -16 21 -42 53 -56 70 -14 17 -52
67 -84 111 -33 44 -69 92 -81 108 l-23 27 0 -172 c-1 -165 -2 -173 -27 -215
-34 -59 -71 -76 -154 -71 -57 3 -70 7 -97 33 -17 17 -36 45 -42 64 -7 23 -11
166 -11 438 0 438 -1 431 57 485 35 32 54 38 120 33 34 -2 62 -11 83 -27z
m1028 23 c44 -13 88 -59 101 -107 6 -21 11 -77 11 -124 l0 -84 48 65 c85 117
163 208 197 229 51 32 122 27 174 -11 46 -33 80 -95 81 -144 0 -40 -40 -122
-82 -165 -47 -51 -148 -173 -148 -181 0 -3 45 -56 100 -117 55 -61 100 -114
100 -118 0 -3 9 -17 20 -31 14 -19 20 -41 20 -80 0 -115 -100 -200 -212 -179
-32 6 -78 44 -125 103 -12 15 -34 42 -47 58 -14 17 -48 58 -76 93 l-50 63 -1
-98 c-1 -115 -12 -150 -58 -189 -32 -26 -42 -29 -112 -29 -76 0 -78 1 -116 38
l-38 39 0 443 0 444 30 32 c51 54 111 70 183 50z m945 -5 c44 -19 82 -58 147
-150 30 -43 69 -95 85 -116 58 -74 78 -103 122 -171 l23 -34 0 157 c0 118 4
169 16 205 30 89 86 129 171 120 64 -7 106 -34 133 -87 19 -37 20 -60 20 -447
0 -456 1 -452 -71 -501 -29 -20 -44 -23 -100 -20 -84 4 -106 21 -214 163 -8
11 -52 68 -97 127 -46 59 -93 122 -105 140 l-23 33 0 -168 c0 -181 -6 -209
-54 -259 -30 -31 -76 -42 -148 -36 -69 7 -113 51 -128 127 -12 66 -13 761 -1
815 10 39 63 94 105 108 36 11 85 9 119 -6z m1066 -17 c43 -31 61 -68 61 -123
0 -70 -27 -183 -56 -232 -67 -115 -203 -103 -239 20 -30 99 -14 266 29 315 50
56 144 65 205 20z m-3765 -14 c182 -47 289 -141 352 -307 25 -64 28 -86 28
-183 -1 -99 -4 -118 -32 -191 -57 -145 -181 -253 -339 -296 -65 -18 -107 -22
-248 -22 -197 -1 -231 8 -287 78 l-33 41 0 390 0 390 25 37 c14 20 47 48 75
62 47 25 57 26 206 26 135 0 170 -3 253 -25z m-12054 -285 c25 -25 26 -78 3
-145 -14 -42 -17 -46 -24 -28 -12 32 -41 43 -113 43 l-66 0 0 75 0 75 90 0
c77 0 93 -3 110 -20z m-1945 -47 c5 -10 22 -49 36 -88 15 -38 39 -101 54 -140
34 -89 68 -182 97 -267 20 -59 26 -68 48 -68 44 -1 51 -12 48 -76 l-3 -59
-150 0 -150 0 0 65 c0 65 0 65 31 70 29 5 30 7 22 38 l-9 32 -109 0 c-98 0
-110 -2 -120 -19 -18 -35 -12 -50 23 -53 l32 -3 3 -68 3 -68 -138 3 -138 3 0
65 c0 63 1 65 26 68 27 3 40 22 64 97 7 22 27 74 43 115 55 138 92 235 92 243
0 4 -16 7 -35 7 l-35 0 0 65 0 64 98 3 c110 3 151 -4 167 -29z m915 -114 l0
-141 31 26 c27 23 39 26 105 26 114 0 169 -35 204 -127 38 -101 20 -243 -38
-310 -34 -39 -97 -63 -167 -63 -54 0 -118 20 -131 42 -6 9 -10 5 -14 -12 -6
-25 -8 -25 -105 -25 l-100 0 0 65 c0 63 1 65 28 68 l27 3 0 230 c0 222 -1 229
-20 229 -18 0 -20 7 -20 65 l0 65 100 0 100 0 0 -141z m-192 -166 l3 -83 -55
0 c-99 0 -147 -44 -154 -141 -4 -58 -4 -59 22 -59 26 0 26 -1 26 -70 l0 -70
-130 0 -130 0 0 70 c0 63 2 70 20 70 19 0 20 7 20 115 0 108 -1 115 -20 115
-18 0 -20 7 -20 65 l0 65 95 0 95 0 0 -62 0 -63 19 30 c30 48 67 77 118 91 85
23 88 21 91 -73z m812 12 c0 -51 -3 -65 -15 -65 -18 0 -12 -52 16 -144 11 -32
19 -65 19 -72 0 -8 6 -14 14 -14 9 0 26 38 46 103 18 56 35 108 37 115 3 7 -3
12 -16 12 -19 0 -21 6 -21 65 l0 65 135 0 135 0 0 -65 c0 -63 -1 -65 -25 -65
-21 0 -29 -9 -46 -47 -21 -47 -57 -145 -86 -233 -8 -25 -23 -63 -33 -85 -9
-22 -20 -53 -24 -69 -13 -55 -57 -116 -103 -142 -36 -22 -53 -26 -98 -22 -92
8 -191 72 -155 101 8 7 23 24 33 40 19 30 42 34 71 12 35 -26 74 -19 96 18 28
45 25 54 -17 61 -37 6 -39 8 -64 78 -14 40 -31 89 -38 108 -14 39 -51 148 -57
168 -2 6 -15 12 -29 12 -24 0 -25 2 -25 65 l0 65 125 0 125 0 0 -65z m653 45
c31 -25 39 -25 35 -2 -3 14 6 18 50 20 l53 3 -3 -98 -3 -98 -57 -3 c-57 -3
-57 -3 -71 31 -18 42 -66 65 -102 49 -31 -14 -32 -47 -2 -66 12 -8 51 -21 86
-30 106 -27 161 -74 161 -138 -1 -42 -37 -106 -71 -123 -65 -34 -169 -29 -266
11 -8 4 -13 -2 -13 -16 0 -19 -5 -21 -52 -18 l-53 3 -3 93 -3 92 62 0 c53 0
64 -3 81 -25 24 -31 89 -50 119 -35 42 23 18 44 -91 80 -102 34 -106 36 -127
79 -32 64 -15 132 47 185 29 23 40 26 114 26 68 0 88 -4 109 -20z m277 -5 c12
-32 -2 -71 -30 -80 -23 -7 -69 17 -71 38 -5 45 14 67 57 67 28 0 36 -5 44 -25z
m15140 -285 c0 -5 -4 -10 -9 -10 -6 0 -11 -15 -13 -32 -2 -18 -7 -33 -13 -33
-5 0 -11 15 -13 33 -2 17 -7 32 -13 32 -5 0 -9 5 -9 10 0 6 16 10 35 10 19 0
35 -4 35 -10z m44 -2 c5 -10 7 -10 12 0 3 6 12 12 19 12 17 0 30 -69 16 -83
-8 -8 -11 -7 -11 2 0 9 -4 10 -12 3 -19 -14 -63 -8 -66 10 -4 20 15 68 27 68
5 0 12 -6 15 -12z m-10783 -259 c17 -17 20 -29 16 -62 -7 -48 -20 -58 -72 -55
-32 3 -42 8 -53 31 -36 75 51 144 109 86z m-6206 -92 c191 -56 339 -117 349
-143 11 -29 6 -54 -15 -75 -18 -18 -29 -20 -65 -15 -24 3 -62 14 -86 25 -185
86 -469 134 -592 100 -50 -14 -87 -50 -79 -78 15 -59 126 -115 323 -164 l125
-31 300 0 c294 0 302 0 415 28 202 49 341 111 388 175 26 36 27 49 7 79 -14
19 -14 24 0 52 8 16 20 30 25 30 5 0 10 10 12 22 5 35 33 33 73 -4 45 -41 59
-94 45 -168 -5 -29 -20 -65 -33 -80 -88 -104 -222 -170 -467 -230 -193 -46
-565 -59 -800 -27 -177 25 -386 93 -457 150 -78 63 -97 98 -97 182 0 66 2 74
34 113 19 23 39 42 44 42 5 0 17 6 25 14 41 36 102 46 256 42 136 -3 161 -7
270 -39z m10455 -236 c5 -11 10 -24 10 -30 0 -18 -39 -51 -59 -51 -41 0 -68
59 -39 88 20 20 76 15 88 -7z m10694 -63 c13 -21 -2 -66 -27 -82 -43 -27 -100
50 -66 90 16 20 79 14 93 -8z m6215 5 c9 -17 10 -17 16 0 11 27 25 20 25 -12
0 -28 0 -29 -61 -29 -39 0 -56 4 -48 9 10 6 11 9 2 9 -7 0 -13 9 -13 20 0 16
7 20 35 20 22 0 37 -6 44 -17z"/>
<path d="M12405 5593 c-157 -16 -228 -29 -303 -53 -107 -35 -264 -115 -313
-160 -9 -8 -36 -28 -59 -45 -23 -16 -72 -64 -108 -105 -36 -41 -69 -76 -74
-78 -4 -2 -8 -8 -8 -13 0 -5 -15 -30 -34 -56 -55 -78 -113 -211 -145 -337 -28
-107 -31 -133 -31 -271 0 -131 4 -167 25 -251 37 -142 96 -279 160 -368 46
-64 120 -150 162 -189 26 -23 51 -47 57 -52 6 -6 22 -18 36 -27 14 -10 51 -35
84 -58 32 -22 60 -40 64 -40 3 0 28 -11 56 -24 144 -68 312 -106 472 -106 109
0 282 29 380 64 76 27 198 88 224 111 9 8 20 15 25 15 16 0 174 140 226 202
151 176 242 388 270 633 12 113 5 200 -31 345 -34 137 -67 219 -128 320 -67
110 -205 265 -285 319 -13 9 -44 29 -68 45 -67 45 -186 101 -274 129 -98 31
-302 58 -380 50z m49 -236 c-64 -37 -134 -121 -134 -161 0 -14 5 -17 23 -11
12 4 46 9 76 12 l54 6 -20 -29 c-12 -16 -30 -38 -42 -48 -29 -27 -26 -36 12
-36 41 0 107 -18 107 -30 0 -9 -80 -50 -99 -50 -9 0 -8 -9 6 -32 39 -67 38
-71 -9 -65 -24 3 -53 9 -65 13 -21 6 -23 3 -23 -32 0 -22 -4 -55 -10 -73 -5
-19 -8 -37 -5 -39 8 -8 45 63 45 86 0 18 4 21 23 18 29 -7 54 -9 95 -7 l32 1
-16 38 c-28 65 -28 66 17 80 35 11 59 25 119 70 12 9 -37 31 -96 43 -62 12
-80 28 -51 46 13 8 57 75 57 87 0 9 -69 7 -115 -4 -49 -11 -57 -5 -25 21 40
32 101 56 160 63 66 8 200 -8 238 -28 29 -16 30 -15 -45 -35 -22 -6 -51 -19
-64 -30 l-22 -18 54 -5 c78 -9 221 -78 281 -136 9 -9 23 -23 30 -29 30 -29 48
-51 70 -83 45 -67 45 -64 -3 -57 -24 3 -91 0 -149 -8 -58 -8 -145 -19 -195
-26 l-90 -11 43 -44 c57 -60 55 -72 -10 -76 l-53 -3 198 -98 c254 -126 238
-96 211 -395 l-7 -73 44 -41 44 -42 -3 -75 c-1 -42 3 -101 11 -131 9 -38 10
-67 4 -92 l-9 -38 -79 0 c-91 0 -92 2 -50 73 25 43 27 54 19 89 -20 90 -29
101 -110 126 -73 23 -89 34 -164 116 -25 27 -81 16 -195 -38 -103 -49 -197
-86 -216 -86 -7 0 -13 6 -13 13 0 6 -16 29 -35 51 -39 42 -44 32 -15 -29 34
-71 20 -132 -19 -83 -29 35 -35 15 -17 -56 16 -67 21 -132 10 -160 -5 -13 -23
-16 -90 -16 l-83 0 10 30 c6 17 14 30 18 30 4 0 14 13 24 29 16 28 16 32 1 70
-18 45 -25 49 -44 26 -23 -27 -46 -18 -47 19 -1 23 -15 53 -48 97 -25 35 -49
76 -52 92 -3 15 -9 27 -12 27 -4 0 -17 -22 -28 -50 -13 -30 -28 -50 -37 -50
-8 0 -13 6 -10 13 2 7 -2 21 -10 32 -15 19 -15 18 -16 -17 0 -25 -8 -46 -25
-65 l-24 -28 -1 25 c0 17 -16 41 -46 70 -25 25 -49 54 -53 64 -4 10 -27 27
-52 36 -36 14 -46 24 -57 56 -46 136 -55 308 -21 384 27 60 55 88 109 112 55
24 147 25 189 4 38 -20 41 -20 41 4 0 11 24 44 53 74 61 63 128 90 223 91 l61
0 -13 30 c-7 17 -28 56 -48 88 -19 33 -38 72 -41 88 -10 42 28 111 83 150 48
34 191 89 232 89 24 -1 24 -1 4 -13z"/>
<path d="M11818 4698 c29 -29 -8 -118 -48 -118 -23 0 -42 -32 -34 -54 8 -20
46 -21 82 -2 35 18 66 77 58 109 -7 29 -43 77 -59 77 -8 0 -7 -4 1 -12z"/>
<path d="M11630 4455 c0 -19 21 -19 46 0 18 14 17 14 -13 15 -23 0 -33 -5 -33
-15z"/>
<path d="M23115 5603 c-210 -18 -406 -83 -555 -183 -25 -17 -59 -39 -75 -50
-38 -24 -219 -211 -237 -244 -7 -13 -30 -51 -50 -84 -51 -84 -84 -167 -121
-302 -29 -105 -31 -127 -31 -265 1 -137 4 -161 33 -270 30 -115 132 -345 151
-345 5 0 12 -9 15 -20 4 -11 16 -31 28 -44 12 -12 37 -42 56 -65 33 -42 191
-181 205 -181 4 0 22 -11 39 -24 77 -57 235 -122 367 -152 122 -27 350 -26
480 3 268 59 500 209 663 427 83 112 131 207 177 351 74 234 56 554 -46 773
-13 29 -24 54 -24 56 0 8 -69 116 -109 171 -117 159 -317 307 -516 380 -116
43 -343 78 -450 68z m-11 -178 c3 -8 -3 -31 -14 -50 -22 -39 -26 -65 -10 -65
6 0 10 -11 10 -25 0 -17 -6 -25 -17 -25 -10 0 -35 -3 -55 -6 l-37 -6 5 37 c4
32 0 41 -32 70 -44 40 -40 61 13 67 47 6 53 3 53 -28 0 -13 5 -24 10 -24 6 0
8 10 4 24 -3 14 -3 30 1 35 10 17 62 13 69 -4z m261 0 c8 -2 8 -27 2 -76 -13
-115 -40 -152 -94 -133 -34 12 -46 54 -15 54 23 0 28 10 37 74 5 31 4 46 -4
46 -12 0 -15 32 -5 43 6 5 49 1 79 -8z m159 -39 c62 -26 83 -85 51 -146 -11
-21 -25 -31 -50 -36 -74 -14 -135 28 -135 91 0 46 13 71 48 89 34 19 45 19 86
2z m-654 -11 c6 -8 9 -19 6 -24 -9 -13 25 -81 40 -81 13 0 27 -27 20 -39 -7
-11 -85 -35 -92 -28 -4 4 -8 17 -9 29 -3 25 -22 78 -28 78 -2 0 0 -21 4 -47
18 -111 1 -121 -76 -45 -45 44 -47 45 -31 14 9 -18 27 -43 38 -54 l21 -21 -29
-24 c-37 -29 -42 -29 -50 5 -10 46 -30 94 -39 92 -9 -2 -25 20 -25 35 0 14 63
55 85 55 10 0 27 -7 37 -17 17 -15 18 -14 18 21 0 33 3 37 30 43 17 3 33 10
36 14 8 14 30 11 44 -6z m862 -102 c7 -8 2 -18 -16 -34 -19 -17 -23 -25 -14
-31 20 -12 24 -10 36 17 14 31 19 31 60 -3 33 -27 37 -62 7 -62 -16 0 -61 -60
-57 -76 1 -6 -4 -17 -12 -23 -11 -9 -20 -6 -45 15 -37 30 -39 49 -9 65 21 11
21 12 3 25 -17 13 -20 11 -31 -16 -14 -32 -31 -39 -40 -16 -3 8 -16 17 -30 20
-30 8 -31 33 -1 47 22 10 57 60 57 83 0 28 22 36 52 18 16 -9 34 -22 40 -29z
m-1165 -75 c4 -7 8 -16 8 -19 0 -9 57 -55 78 -62 24 -9 18 -35 -13 -59 -27
-20 -60 -16 -60 7 0 14 -30 49 -36 42 -2 -2 5 -25 17 -52 28 -62 17 -71 -54
-47 -63 21 -65 13 -6 -24 45 -28 45 -30 20 -64 l-19 -24 -49 49 c-26 28 -57
55 -68 61 -19 11 -19 12 9 53 27 39 32 42 63 36 32 -6 33 -5 21 20 -10 23 -8
29 22 60 36 37 54 43 67 23z m1348 -88 c27 -28 28 -33 18 -68 -5 -20 -14 -46
-18 -57 -8 -18 -7 -18 8 -6 9 7 17 18 17 24 0 5 8 15 17 22 15 11 20 9 36 -17
19 -32 10 -58 -19 -58 -8 0 -35 -16 -60 -35 -44 -34 -48 -35 -65 -19 -23 21
-24 52 -4 101 8 20 13 38 11 41 -8 7 -26 -8 -26 -22 0 -7 -8 -20 -18 -29 -17
-16 -20 -15 -42 10 -26 30 -18 55 17 58 21 1 83 58 83 75 0 18 16 11 45 -20z
m-1558 -180 c5 -19 64 -46 93 -42 35 5 40 -12 17 -60 -19 -40 -25 -44 -44 -37
-13 5 -23 13 -23 19 0 11 -62 41 -77 39 -37 -6 -41 10 -18 65 17 39 44 48 52
16z m1694 -27 c7 -16 15 -31 16 -34 5 -9 -45 -29 -71 -29 -30 0 -64 36 -48 52
8 8 15 8 27 -2 12 -10 15 -10 15 3 0 14 24 36 41 37 3 0 12 -12 20 -27z m-923
-360 c-3 -335 -5 -372 -22 -413 -22 -52 -85 -117 -124 -128 -43 -12 -214 -7
-254 7 l-38 13 0 94 0 94 43 -1 c63 -3 84 7 91 43 3 17 6 127 6 244 l0 214
-45 0 -45 0 0 100 0 100 196 0 195 0 -3 -367z m540 0 l-3 -368 -29 -55 c-33
-65 -82 -109 -134 -121 -50 -12 -145 -10 -212 4 l-55 12 -3 97 -3 97 52 -1
c85 0 84 -4 87 267 l3 235 -45 0 -46 0 0 100 0 100 196 0 196 0 -4 -367z m413
259 c19 -16 54 -100 45 -109 -1 -1 -13 -4 -27 -5 -21 -3 -24 1 -23 30 1 21 -3
32 -12 32 -8 0 -14 -10 -14 -26 0 -32 -15 -61 -40 -74 -27 -15 -69 7 -76 39
-2 14 -9 38 -13 54 -8 22 -6 29 11 38 34 18 51 4 44 -36 -4 -22 -3 -35 4 -35
5 0 10 15 10 33 0 37 7 49 35 65 27 15 29 15 56 -6z m-1711 -39 c36 -12 71
-31 78 -40 13 -18 9 -58 -10 -80 -13 -16 -38 -5 -38 16 0 24 -106 57 -127 40
-25 -22 -41 9 -31 59 10 48 9 48 128 5z m-17 -363 c14 -38 18 -40 56 -40 44 0
58 -23 22 -35 -35 -11 -43 -30 -32 -71 6 -20 8 -41 5 -46 -6 -9 -40 7 -62 28
-10 11 -19 9 -49 -12 -44 -30 -56 -21 -42 29 11 42 3 61 -32 72 -35 11 -22 35
19 35 48 0 58 8 67 48 9 43 29 40 48 -8z m1699 0 c15 -37 19 -40 57 -40 50 0
55 -22 11 -45 -32 -17 -36 -29 -20 -70 15 -39 4 -47 -36 -23 l-35 21 -38 -21
c-21 -12 -41 -19 -44 -16 -3 3 1 23 8 45 14 39 14 39 -20 65 -19 15 -35 30
-35 35 0 4 19 9 43 11 37 3 44 7 60 41 10 20 22 37 25 37 4 0 15 -18 24 -40z
m-1513 -471 c18 -24 20 -33 10 -45 -9 -11 -15 -12 -25 -3 -11 9 -14 6 -14 -15
0 -19 -6 -27 -26 -32 -21 -5 -32 0 -57 25 -31 31 -31 33 -13 46 16 12 22 12
35 2 8 -6 12 -7 9 -2 -3 6 -2 20 3 33 12 33 50 29 78 -9z m1339 13 c2 -6 -7
-16 -20 -22 -19 -8 -16 -9 15 -4 69 11 87 -28 37 -78 -30 -29 -32 -30 -45 -12
-7 10 -11 22 -9 26 3 5 -4 8 -14 8 -11 0 -25 7 -33 16 -18 22 16 86 45 82 10
-2 21 -9 24 -16z m-94 -112 c-6 -6 -9 -22 -6 -36 4 -25 5 -25 19 -4 12 17 18
19 29 9 21 -17 18 -27 -23 -64 -46 -42 -60 -44 -74 -7 -6 15 -22 36 -37 48
l-26 21 22 12 c12 6 34 23 48 37 25 22 29 23 43 9 11 -10 12 -18 5 -25z
m-1145 -1 l33 -31 -21 -20 c-12 -11 -24 -33 -28 -49 -6 -31 -14 -35 -44 -19
-20 11 -26 36 -9 42 6 2 6 8 0 18 -8 13 -10 12 -10 -2 0 -23 -36 -24 -44 -2
-10 26 -8 29 28 42 19 7 36 21 39 32 7 27 16 25 56 -11z m132 -112 c0 -12 3
-16 6 -9 7 17 42 15 49 -3 3 -7 -6 -29 -20 -48 -14 -19 -26 -39 -26 -45 0 -13
-11 -15 -34 -6 -9 3 -16 14 -16 24 0 14 -7 18 -32 16 -42 -1 -48 23 -14 59 14
15 25 30 24 34 -3 26 4 29 32 15 19 -10 30 -23 31 -37z m882 25 c3 -15 15 -38
26 -51 27 -31 26 -35 -5 -50 -28 -12 -44 -7 -44 15 0 8 -4 14 -10 14 -14 0
-13 -13 2 -28 15 -15 -5 -38 -37 -44 -14 -2 -21 4 -25 24 -3 15 -13 37 -22 48
-24 27 -23 35 9 49 21 9 28 9 34 -1 4 -6 5 -16 3 -20 -3 -4 2 -8 10 -8 9 0 16
5 16 10 0 6 -4 10 -9 10 -23 0 -18 31 7 44 37 20 39 20 45 -12z m-703 -81 c37
-19 46 -37 36 -77 -9 -35 -44 -48 -92 -35 -63 18 -72 26 -51 49 15 17 23 40
26 85 1 10 34 1 81 -22z m534 13 c11 -28 7 -34 -24 -34 -23 0 -30 -5 -30 -19
0 -27 19 -36 33 -16 12 16 47 12 47 -5 0 -17 -36 -49 -62 -56 -21 -4 -33 0
-52 20 -44 43 -30 89 34 115 36 14 47 13 54 -5z m-368 -34 c32 0 34 -2 34 -37
0 -41 12 -38 14 4 1 23 6 29 29 31 21 3 27 -1 27 -17 0 -10 -4 -21 -8 -23 -4
-1 -15 -21 -23 -43 -18 -48 -54 -61 -68 -23 l-8 23 -7 -23 c-5 -15 -13 -21
-23 -18 -8 3 -18 6 -23 6 -6 0 -40 103 -40 124 0 5 14 6 31 2 17 -3 47 -6 65
-6z m211 -36 c0 -27 5 -49 13 -54 20 -12 3 -27 -36 -32 -34 -4 -35 -3 -30 22
2 15 -2 39 -10 54 -22 45 -22 45 53 55 7 0 11 -16 10 -45z"/>
<path d="M23476 5321 c-22 -41 -20 -61 4 -61 23 0 30 12 33 55 3 39 -19 42
-37 6z"/>
<path d="M23875 3870 c-3 -5 -1 -10 4 -10 6 0 11 5 11 10 0 6 -2 10 -4 10 -3
0 -8 -4 -11 -10z"/>
<path d="M22585 3790 c3 -5 8 -10 11 -10 2 0 4 5 4 10 0 6 -5 10 -11 10 -5 0
-7 -4 -4 -10z"/>
<path d="M22912 3611 c-9 -25 -8 -31 3 -31 17 0 30 39 17 52 -6 6 -13 -1 -20
-21z"/>
<path d="M23092 3610 c0 -14 2 -19 5 -12 2 6 2 18 0 25 -3 6 -5 1 -5 -13z"/>
<path d="M30140 5424 c-59 -15 -185 -51 -315 -89 -44 -12 -123 -35 -175 -50
-52 -14 -138 -39 -191 -56 -52 -16 -100 -29 -105 -29 -5 0 -45 -11 -89 -24
-44 -13 -123 -36 -175 -50 -52 -15 -131 -37 -175 -50 -44 -13 -123 -36 -175
-50 -109 -31 -251 -71 -517 -149 -48 -14 -56 -13 -135 9 -110 31 -163 47 -283
84 -55 16 -104 30 -110 30 -5 0 -46 11 -90 25 -44 13 -120 35 -170 49 -200 56
-284 79 -360 102 -246 72 -234 70 -274 48 -20 -10 -45 -36 -56 -56 l-20 -37
24 -73 c13 -40 37 -108 53 -150 15 -43 28 -84 28 -91 0 -8 9 -36 19 -63 11
-27 34 -95 51 -152 46 -146 41 -180 -58 -357 -22 -39 -80 -133 -102 -165 -9
-14 -21 -36 -25 -50 -4 -14 -15 -36 -25 -50 -47 -70 -70 -107 -70 -113 0 -4
-12 -26 -27 -50 -92 -144 -100 -188 -43 -242 39 -37 95 -37 203 -1 42 14 84
26 92 26 7 0 49 11 92 24 43 14 121 36 173 51 52 15 131 37 175 50 197 57 501
144 735 210 52 14 123 35 158 46 77 24 79 24 155 -1 34 -11 105 -32 157 -46
52 -14 131 -37 175 -49 44 -13 123 -36 175 -50 52 -15 142 -41 200 -57 160
-46 256 -74 360 -103 52 -15 124 -36 160 -46 91 -27 199 -57 309 -85 109 -29
143 -23 187 29 24 29 26 37 21 97 -3 36 -15 88 -25 115 -11 28 -35 97 -53 155
-17 58 -40 128 -49 155 -96 278 -101 325 -45 432 20 38 49 91 65 118 16 28 41
70 55 95 27 48 36 63 74 125 14 22 40 69 59 105 19 36 40 72 47 80 7 8 19 29
27 45 8 17 35 64 59 105 51 87 56 129 20 177 -13 18 -41 39 -63 48 -44 17 -37
17 -108 -1z m-2031 -679 c148 -52 219 -241 149 -395 -36 -80 -70 -125 -131
-175 -98 -82 -224 -108 -342 -72 -70 22 -98 43 -142 111 -39 59 -47 95 -41
190 4 59 11 85 38 132 104 186 295 271 469 209z m1662 -2 c27 -10 49 -23 49
-30 0 -6 -16 -39 -36 -72 l-36 -61 -25 20 c-13 10 -45 22 -69 26 -38 5 -54 2
-107 -24 -89 -44 -137 -121 -137 -220 0 -126 143 -199 250 -128 22 14 43 26
48 26 5 0 16 -25 26 -56 l18 -57 -28 -24 c-63 -54 -211 -72 -312 -39 -232 78
-224 433 13 596 96 66 233 83 346 43z m-2151 0 c0 -4 -17 -35 -37 -70 l-38
-63 -136 0 c-75 0 -139 -3 -142 -6 -4 -4 13 -19 36 -34 23 -14 55 -35 71 -46
15 -10 49 -31 74 -45 26 -14 60 -43 77 -64 27 -34 30 -43 30 -108 -1 -78 -19
-118 -78 -166 -43 -35 -83 -41 -324 -41 l-222 0 27 48 c57 103 40 96 245 102
l182 5 3 30 c2 27 -4 34 -69 75 -39 25 -78 49 -87 55 -98 57 -132 100 -132
166 0 74 57 150 120 162 40 7 400 8 400 0z m944 1 c9 -3 34 -45 57 -93 110
-233 143 -293 150 -274 6 18 28 141 51 288 l13 80 83 3 c76 3 83 1 78 -15 -3
-10 -8 -40 -11 -68 -4 -27 -17 -113 -30 -190 -13 -77 -29 -176 -35 -219 -20
-133 -50 -172 -133 -169 -74 3 -83 16 -223 308 l-47 100 -24 -125 c-13 -69
-29 -158 -35 -197 l-13 -73 -77 0 -78 0 0 30 c0 16 9 76 20 132 11 57 25 137
30 178 5 41 20 128 32 192 l23 118 77 0 c42 0 84 -3 92 -6z m671 -51 c-4 -32
-13 -89 -21 -128 -8 -38 -21 -115 -29 -170 -7 -55 -22 -144 -31 -197 l-18 -98
-84 0 -83 0 6 38 c3 20 14 87 25 147 17 100 27 157 61 370 6 39 13 76 15 83 2
8 28 12 85 12 l81 0 -7 -57z"/>
<path d="M27903 4605 c-59 -30 -72 -43 -107 -109 -38 -71 -37 -159 2 -209 32
-42 91 -70 130 -61 38 9 103 51 130 85 34 42 64 135 57 173 -12 60 -35 95 -79
121 -53 31 -70 31 -133 0z"/>
<path d="M16027 4654 c-4 -4 -7 -85 -7 -181 l0 -173 65 0 c96 0 155 32 184 99
11 27 21 60 21 73 0 77 -58 159 -121 172 -55 12 -134 18 -142 10z"/>
<path d="M2142 4393 c-12 -31 -42 -125 -42 -130 0 -2 29 -3 64 -3 l64 0 -31
80 c-18 44 -35 80 -38 80 -4 0 -11 -12 -17 -27z"/>
<path d="M3213 4283 c-33 -17 -43 -43 -43 -112 0 -34 20 -76 44 -93 6 -4 28
-8 49 -8 70 0 107 72 81 160 -12 39 -20 50 -46 59 -39 14 -46 13 -85 -6z"/>
<path d="M4630 4400 c-14 -26 3 -60 32 -60 17 0 18 2 8 15 -11 13 -15 13 -21
3 -6 -8 -9 -1 -9 20 0 29 3 33 23 30 15 -2 22 -10 23 -26 2 -35 14 -39 14 -5
0 45 -50 61 -70 23z"/>
<path d="M9023 3853 c-21 -8 -15 -68 7 -88 16 -15 26 -17 48 -9 22 8 28 16 30
48 2 24 -2 42 -10 47 -14 9 -55 11 -75 2z m68 -43 c9 -42 2 -52 -17 -26 -12
17 -14 18 -14 3 0 -9 -7 -17 -15 -17 -11 0 -15 11 -15 41 0 38 2 40 27 37 22
-2 29 -10 34 -38z"/>
<path d="M13279 3524 c-17 -20 -1 -48 31 -52 13 -2 20 0 16 7 -4 5 -13 8 -21
4 -11 -4 -15 2 -15 21 0 19 5 26 20 26 13 0 20 -7 20 -19 0 -11 5 -23 10 -26
11 -7 13 15 4 39 -8 21 -48 21 -65 0z"/>
<path d="M23972 3464 c-15 -27 6 -64 36 -64 21 0 23 2 11 16 -8 10 -15 12 -17
5 -6 -19 -22 -1 -22 25 0 19 5 24 24 24 18 0 26 -6 29 -25 4 -23 4 -23 3 2 -1
22 -6 29 -28 31 -17 2 -30 -3 -36 -14z"/>
</g>
</svg>
